SplineFontDB: 3.2
FontName: canarypost
FullName: Canary Post
FamilyName: Canary Post
Weight: Regular
Copyright: Copyright (c) 2023, Matthew Dillard
UComments: "2023-7-24: Created with FontForge (http://fontforge.org)"
Version: 001.000
ItalicAngle: 0
UnderlinePosition: -102.4
UnderlineWidth: 51.2
Ascent: 819
Descent: 205
InvalidEm: 0
LayerCount: 2
Layer: 0 0 "Back" 1
Layer: 1 0 "Fore" 0
XUID: [1021 513 534203529 8765880]
StyleMap: 0x0000
FSType: 0
OS2Version: 0
OS2_WeightWidthSlopeOnly: 0
OS2_UseTypoMetrics: 1
CreationTime: 1690256692
ModificationTime: 1690291055
OS2TypoAscent: 0
OS2TypoAOffset: 1
OS2TypoDescent: 0
OS2TypoDOffset: 1
OS2TypoLinegap: 92
OS2WinAscent: 0
OS2WinAOffset: 1
OS2WinDescent: 0
OS2WinDOffset: 1
HheadAscent: 0
HheadAOffset: 1
HheadDescent: 0
HheadDOffset: 1
MarkAttachClasses: 1
DEI: 91125
Encoding: ISO8859-1
UnicodeInterp: none
NameList: AGL For New Fonts
DisplaySize: -48
AntiAlias: 1
FitToEm: 0
WinInfo: 24 24 10
BeginPrivate: 0
EndPrivate
BeginChars: 258 28

StartChar: A
Encoding: 65 65 0
Width: 807
Flags: W
HStem: 223 159<290.048 410.76>
LayerCount: 2
Fore
SplineSet
746 162 m 2
 747 161 l 2
 769 133 773 105 770 84 c 0
 767 63 750 33 697 16 c 0
 644 -1 604 44 594 59 c 0
 584 74 556 130 525 177 c 0
 494 224 481 224 450 223 c 0
 419 222 373 215 286 209 c 0
 243 206 231 169 231 169 c 1
 231 169 220 124 202 73 c 0
 184 22 154 -6 92 8 c 0
 30 22 36 64 39 88 c 0
 42 112 96 310 96 310 c 1
 96 310 134 459 151 514 c 0
 168 569 195 653 212 697 c 0
 229 742 248 781 264 799 c 0
 280 817 337 820 356 798 c 0
 375 776 432 708 464 650 c 0
 496 592 581 439 598 411 c 0
 615 383 724 190 746 162 c 2
407 388 m 0
 429 392 361 535 336 532 c 0
 319 530 306 486 300 465 c 0
 294 444 279 383 296 382 c 0
 313 381 334 380 349 381 c 0
 364 382 385 384 407 388 c 0
EndSplineSet
Validated: 33
EndChar

StartChar: B
Encoding: 66 66 1
Width: 843
Flags: W
HStem: 369 158<310.674 481.33> 683 128<292.457 477.257>
VStem: 105 173<164.016 358.866 527.009 637.98> 631 175<200.971 324.412>
LayerCount: 2
Fore
SplineSet
639 488 m 1
 635 487 l 1
 705 471 812 398 806 237 c 0
 800 76 630 9 586 2 c 0
 506 -10 276 -6 276 -6 c 1
 276 -6 223 -7 171 -2 c 0
 119 3 105 86 105 86 c 1
 102 630 l 2
 86 637 64 642 56 663 c 0
 49 682 46 705 55 726 c 0
 76 775 198 803 276 811 c 0
 354 819 411 817 502 800 c 0
 593 783 670 729 680 647 c 0
 690 565 661 523 647 509 c 0
 641 503 629 494 639 488 c 1
277 640 m 0
 277 633 270 553 275 546 c 0
 280 539 285 527 295 527 c 0
 305 527 441 529 461 533 c 0
 481 537 511 581 506 620 c 0
 499 676 419 682 389 683 c 0
 359 684 301 679 292 677 c 0
 283 675 277 647 277 640 c 0
563 170 m 1
 619 178 630 241 631 272 c 0
 632 303 620 317 602 330 c 0
 557 362 477 367 429 369 c 0
 362 372 324 363 310 362 c 0
 296 361 279 344 279 327 c 0
 279 310 272 195 278 183 c 0
 284 171 295 163 312 162 c 0
 329 161 537 163 563 170 c 1
EndSplineSet
Validated: 37
EndChar

StartChar: C
Encoding: 67 67 2
Width: 825
Flags: W
HStem: 10 160<357.75 552.311>
LayerCount: 2
Fore
SplineSet
220 425 m 1
 221 354 233 196 442 170 c 0
 510 167 563 195 599 214 c 0
 635 233 658 249 685 251 c 0
 719 253 769 248 766 186 c 0
 763 136 728 103 698 77 c 0
 668 51 544 12 490 10 c 0
 436 8 321 7 236 62 c 0
 151 117 105 182 74 240 c 0
 43 298 34 404 46 480 c 0
 58 555 100 629 124 659 c 0
 148 689 195 747 308 791 c 0
 421 835 512 814 546 808 c 0
 580 802 663 762 704 715 c 0
 745 668 719 620 700 605 c 0
 681 590 621 580 577 620 c 0
 533 660 438 650 438 650 c 1
 438 650 364 640 308 603 c 0
 252 566 219 496 220 425 c 1
EndSplineSet
Validated: 33
EndChar

StartChar: N
Encoding: 78 78 3
Width: 876
Flags: W
VStem: 61 178<22.0398 415.785 416 420.415> 605 176<478.046 783.919>
LayerCount: 2
Fore
SplineSet
69 621 m 2
 69 621 82 740 162 744 c 0
 242 748 260 709 271 695 c 0
 282 681 311 641 347 590 c 0
 383 539 623 294 623 294 c 1
 623 294 607 615 605 647 c 0
 603 679 589 766 635 793 c 0
 681 820 728 807 752 791 c 0
 776 775 782 729 781 698 c 0
 780 667 786 539 786 475 c 0
 786 411 797 256 799 222 c 0
 801 189 814 84 759 48 c 0
 683 -2 599 57 574 80 c 0
 553 99 334 330 256 420 c 0
 248 429 237 428 238 416 c 2
 238 416 238 120 239 99 c 0
 240 78 246 5 155 -2 c 0
 64 -9 61 60 61 77 c 0
 61 85 63 202 65 318 c 0
 67 468 69 621 69 621 c 2
EndSplineSet
EndChar

StartChar: D
Encoding: 68 68 4
Width: 862
Flags: W
HStem: 2 159<341.285 510.014>
LayerCount: 2
Fore
SplineSet
670 647 m 2
 670 646 l 2
 818 513 828 343 793 236 c 0
 758 129 657 70 568 39 c 0
 479 8 300 0 269 2 c 0
 238 4 182 20 163 129 c 0
 157 161 138 356 130 426 c 0
 124 475 114 562 109 609 c 0
 107 628 107 627 100 637 c 0
 93 647 93 644 78 653 c 0
 55 667 24 695 29 741 c 0
 36 816 143 822 188 821 c 0
 233 820 505 795 670 647 c 2
608 257 m 2
 624 281 646 338 621 428 c 0
 598 509 552 555 464 593 c 0
 363 637 328 630 316 631 c 0
 304 632 282 628 284 607 c 0
 286 586 335 193 341 181 c 0
 347 169 358 160 387 161 c 0
 572 171 595 239 608 257 c 2
EndSplineSet
Validated: 33
EndChar

StartChar: S
Encoding: 83 83 5
Width: 765
Flags: W
LayerCount: 2
Fore
SplineSet
352 815 m 0
 487 817 563 764 599 739 c 0
 644 708 643 635 620 611 c 0
 593 583 527 588 480 614 c 0
 363 675 244 645 247 563 c 0
 250 482 369 489 369 490 c 1
 369 490 508 496 566 472 c 0
 599 458 692 406 710 299 c 2
 710 299 730 153 660 98 c 0
 590 43 552 8 405 -3 c 0
 258 -14 150 52 110 79 c 0
 70 106 40 166 69 206 c 0
 98 246 170 269 229 228 c 0
 288 187 400 155 451 169 c 0
 502 183 528 207 524 252 c 0
 521 288 504 306 478 317 c 0
 452 328 356 311 307 318 c 0
 258 325 194 352 151 385 c 0
 93 424 55 491 54 529 c 0
 52 604 55 609 94 683 c 0
 133 757 217 813 352 815 c 0
EndSplineSet
Validated: 33
EndChar

StartChar: E
Encoding: 69 69 6
Width: 751
Flags: W
HStem: 341 175<283.406 472.741> 377 148<423.5 594.414>
VStem: 100 176<184.96 337.613 516.053 627.946>
LayerCount: 2
Fore
SplineSet
100 619 m 1xa0
 98 639 76 641 63 675 c 0
 54 692 56 717 63 735 c 0
 70 753 80 769 110 777 c 0
 140 785 237 797 305 804 c 0
 373 811 434 820 488 824 c 0
 542 828 615 835 620 834 c 0
 646 828 656 818 670 801 c 0
 684 784 677 743 676 727 c 0
 675 711 667 667 614 659 c 0
 561 652 302 629 291 628 c 0
 280 627 280 616 277 605 c 0
 274 594 276 550 276 541 c 0
 276 532 283 515 297 516 c 0xa0
 311 517 536 526 550 525 c 0
 564 524 606 520 616 491 c 0
 626 462 624 450 621 432 c 0
 618 414 585 386 549 377 c 0x60
 513 368 353 343 309 341 c 0
 294 338 285 331 282 312 c 0
 279 293 279 205 280 199 c 0
 281 193 289 184 298 185 c 0
 307 186 615 225 661 212 c 0
 707 199 707 149 707 140 c 0
 707 131 706 79 654 62 c 0
 513 6 223 -6 203 -6 c 0
 183 -6 112 -15 102 102 c 0
 92 219 100 597 100 619 c 1xa0
EndSplineSet
Validated: 33
EndChar

StartChar: F
Encoding: 70 70 7
Width: 776
Flags: W
HStem: 314 157<330 400.656> 648 140<586.451 719.283>
VStem: 133 169<26.5554 285.161>
LayerCount: 2
Fore
SplineSet
255 809 m 0
 387 821 480 820 559 813 c 0
 638 806 669 796 691 788 c 0
 713 780 740 747 739 722 c 0
 738 697 736 653 670 648 c 0
 625 637 402 647 330 633 c 0
 301 627 300 611 299 607 c 0
 298 603 294 531 304 495 c 0
 307 473 317 471 329 471 c 0
 341 471 459 481 459 481 c 1
 459 481 551 491 569 465 c 0
 582 446 595 417 584 382 c 0
 573 347 468 328 468 328 c 1
 330 314 l 1
 330 314 304 304 304 281 c 0
 305 258 309 83 302 59 c 0
 295 35 261 1 225 -1 c 0
 189 -3 141 17 133 53 c 0
 125 89 112 269 111 282 c 0
 110 295 102 305 94 309 c 0
 86 313 77 331 76 341 c 0
 74 357 69 374 77 399 c 0
 85 424 107 427 109 445 c 0
 113 482 100 588 99 599 c 0
 96 614 74 630 68 650 c 0
 62 670 63 701 70 714 c 0
 85 741 123 797 255 809 c 0
EndSplineSet
Validated: 33
EndChar

StartChar: G
Encoding: 71 71 8
Width: 841
Flags: W
HStem: 267 144<426.813 548.46>
LayerCount: 2
Fore
SplineSet
252 507 m 1
 252 507 175 321 279 215 c 0
 338 156 438 159 499 187 c 0
 546 209 555 246 547 256 c 0
 528 279 515 264 462 267 c 0
 409 270 406 323 407 342 c 0
 408 361 422 407 475 411 c 0
 528 415 580 408 627 423 c 0
 686 441 735 411 748 361 c 0
 757 323 752 309 760 260 c 0
 765 228 771 180 784 152 c 0
 806 106 806 55 788 26 c 0
 770 -3 733 -16 705 -16 c 0
 677 -16 647 -7 635 36 c 0
 631 50 627 55 610 55 c 0
 593 55 552 28 526 20 c 0
 489 8 393 -8 313 7 c 0
 255 18 155 54 91 163 c 0
 35 276 54 448 61 479 c 0
 68 510 125 705 261 782 c 0
 394 857 546 796 546 796 c 1
 546 796 660 758 610 674 c 0
 576 617 497 652 497 652 c 1
 497 652 401 684 344 638 c 0
 287 592 252 507 252 507 c 1
EndSplineSet
Validated: 33
EndChar

StartChar: Y
Encoding: 89 89 9
Width: 779
Flags: W
LayerCount: 2
Fore
SplineSet
692 835 m 5
 745 811 734 729 714 696 c 0
 693 662 469 117 435 39 c 0
 401 -39 330 -18 330 -18 c 1
 330 -18 237 -7 271 118 c 0
 280 151 312 224 340 291 c 0
 349 312 343 340 328 357 c 0
 243 454 49 673 43 684 c 0
 36 699 21 749 66 786 c 0
 111 823 161 794 176 784 c 0
 213 761 327 629 410 537 c 0
 423 522 444 521 452 539 c 0
 459 555 469 579 476 594 c 0
 517 684 530 709 546 747 c 0
 593 857 646 861 692 835 c 5
EndSplineSet
Validated: 33
EndChar

StartChar: H
Encoding: 72 72 10
Width: 852
Flags: W
VStem: 61 181<480.304 735.301> 61 161<499.986 774.67> 108 163<45.0953 208.313> 593 181<15.6028 118.763>
LayerCount: 2
Fore
SplineSet
294 473 m 1x90
 333 470 470 491 505 496 c 0
 540 501 539 515 542 528 c 0
 545 541 537 629 532 671 c 0
 527 708 524 744 533 769 c 0
 542 794 566 809 596 814 c 0
 626 819 649 810 657 805 c 0
 665 800 690 776 698 741 c 0
 706 706 733 476 740 414 c 0
 747 352 786 169 786 121 c 0
 786 73 785 43 774 27 c 0
 763 11 750 -15 692 -15 c 0
 634 -15 598 24 593 58 c 0
 588 92 573 234 568 264 c 0
 563 294 543 305 526 307 c 0
 509 309 434 309 402 309 c 0
 370 309 300 297 288 294 c 0
 276 291 264 283 264 261 c 0
 264 239 279 144 271 93 c 0
 262 42 228 28 217 23 c 0
 206 18 162 16 146 26 c 0
 130 36 113 52 108 77 c 0x30
 103 102 91 154 87 196 c 0
 83 238 62 422 61 474 c 0
 60 526 47 676 56 716 c 0
 65 756 81 781 103 792 c 0
 125 803 156 804 182 789 c 0
 208 774 221 747 222 717 c 0x50
 223 661 242 528 242 513 c 0
 242 494 255 476 294 473 c 1x90
EndSplineSet
Validated: 33
EndChar

StartChar: I
Encoding: 73 73 11
Width: 400
Flags: W
VStem: 89 173<475.277 779.277> 93 192<53.4501 708.559>
LayerCount: 2
Fore
SplineSet
93 577 m 1x40
 92 634 82 721 89 743 c 0
 96 766 105 780 127 797 c 0
 149 814 198 816 221 798 c 0
 244 780 257 758 262 713 c 0x80
 267 668 284 546 285 453 c 0
 286 360 297 155 287 95 c 0
 277 35 256 23 242 15 c 0
 228 7 177 6 160 14 c 0
 143 22 116 43 101 79 c 0
 86 115 100 288 97 364 c 0
 94 440 94 521 93 578 c 1
 93 577 l 1x40
EndSplineSet
Validated: 33
EndChar

StartChar: U
Encoding: 85 85 12
Width: 854
Flags: HW
VStem: 614 181<373.15 781.004>
LayerCount: 2
Fore
SplineSet
134 778 m 0
 205 777 219 726 221 713 c 0
 223 700 240 418 287 299 c 0
 310 240 364 201 426 196 c 0
 488 191 539 223 567 290 c 0
 623 422 619 571 614 654 c 0
 609 739 613 808 691 812 c 0
 769 816 795 734 795 693 c 0
 795 652 787 403 763 304 c 0
 739 205 720 108 551 31 c 0
 382 -46 275 48 275 48 c 1
 275 48 149 119 109 302 c 0
 69 485 60 573 55 604 c 0
 50 635 46 697 49 712 c 0
 52 727 63 779 134 778 c 0
EndSplineSet
EndChar

StartChar: J
Encoding: 74 74 13
Width: 664
Flags: W
VStem: 376 162<697.586 799.714> 412 180<230.419 433>
LayerCount: 2
Fore
SplineSet
412 433 m 1x40
 412 433 391 657 376 725 c 0
 362 793 410 816 426 820 c 0
 442 824 519 824 538 770 c 0x80
 557 716 593 585 592 473 c 0
 591 361 590 296 577 236 c 0
 564 176 539 131 520 104 c 0
 501 77 428 7 343 -7 c 0
 258 -21 152 42 126 70 c 0
 100 98 34 182 45 255 c 0
 56 328 145 324 175 284 c 0
 213 234 250 176 329 188 c 0
 408 200 414 277 412 433 c 1x40
EndSplineSet
Validated: 33
EndChar

StartChar: K
Encoding: 75 75 14
Width: 918
Flags: HW
HStem: 53 194<733.332 844.307>
VStem: 93 187<36.4588 240.301>
LayerCount: 2
Fore
SplineSet
93 114 m 0
 92 157 74 548 62 626 c 0
 50 704 51 738 65 755 c 0
 79 772 122 795 160 790 c 0
 198 785 219 762 227 738 c 0
 237 708 240.556882374 592.544941011 248 533 c 4
 250 517 263 519 271 529 c 0
 304 570 363 646 392 678 c 0
 433 723 476 782 507 807 c 0
 538 832 560 838 580 838 c 0
 600 838 637 821 646 796 c 0
 655 771 656.104279746 741.192516453 643 717 c 0
 630 693 439 459 403 415 c 0
 400 411 401 407 405 405 c 0
 419 399 533 352 579 332 c 0
 625 312 653 300 694 284 c 0
 735 268 735 268 807 247 c 0
 861 231 891 184 876 128 c 0
 861 72 811 41 758 53 c 0
 705 65 612 122 502 165 c 0
 431 192 350 214 296 243 c 0
 277 253 272.752513729 237.103633305 275 218 c 0
 277 201 281 178 280 120 c 0
 279 62 279 53 264 27 c 0
 248 1 207 -16 159 1 c 0
 111 18 94 71 93 114 c 0
EndSplineSet
EndChar

StartChar: L
Encoding: 76 76 15
Width: 800
Flags: HW
HStem: -2 187<294.36 564.824>
VStem: 66 182<244.853 707.422>
LayerCount: 2
Fore
SplineSet
66 476 m 1
 63 615 60 691 68 738 c 0
 76 785 90 797 104 804 c 0
 118 811 156 822 188 805 c 0
 220 788 232 756 234 739 c 0
 236 722 245 412 248 363 c 0
 251 314 266 261 273 244 c 0
 279 230 300 194 335 193 c 0
 351 193 433 183 518 202 c 0
 574 215 605 234 665 233 c 0
 725 232 753 183 754 167 c 0
 755 151 758 103 744 83 c 0
 730 63 707 43 674 36 c 0
 641 29 607 24 566 20 c 0
 525 16 477 10 423 6 c 0
 369 2 266 1 223 14 c 0
 180 27 147 45 128 73 c 0
 109 101 88 149 80 189 c 0
 72 229 69 337 66 476 c 1
EndSplineSet
EndChar

StartChar: M
Encoding: 77 77 16
Width: 1107
Flags: W
VStem: 884 177<62.3424 195.963>
LayerCount: 2
Fore
SplineSet
85 198 m 1
 110 266 183 520 209 653 c 0
 222 718 253 757 273 771 c 0
 293 785 333 781 361 777 c 0
 389 773 421 730 436 695 c 0
 462 635 512 534 539 488 c 0
 544 480 557 481 560 490 c 0
 581 546 630 687 638 715 c 0
 648 750 663 783 680 802 c 0
 697 821 730 823 751 821 c 0
 772 819 826 806 838 774 c 0
 850 742 887 649 900 600 c 0
 913 551 1035 241 1044 204 c 0
 1053 167 1064 131 1061 100 c 0
 1058 69 1038 38 1017 28 c 0
 996 18 943 21 921 44 c 0
 899 67 897 78 884 125 c 0
 871 172 838 271 808 349 c 0
 788 401 762 450 748 477 c 0
 744 485 733 484 730 475 c 0
 710 412 654 235 651 225 c 0
 648 213 628 153 583 150 c 0
 538 147 516 170 503 188 c 0
 490 206 448 271 412 366 c 0
 385 437 363 465 348 484 c 0
 344 489 333 487 331 481 c 2
 331 481 258 149 253 124 c 0
 248 99 238 40 213 19 c 0
 188 -2 129 1 129 1 c 1
 129 1 55 19 58 80 c 0
 60 124 60 131 85 198 c 1
EndSplineSet
Validated: 33
EndChar

StartChar: O
Encoding: 79 79 17
Width: 866
Flags: W
HStem: 799 20G<346.5 461.5>
VStem: 631 177<303.163 521.486>
LayerCount: 2
Fore
SplineSet
673 714 m 2
 738 659 809 576 808 401 c 0
 807 226 719 123 641 79 c 0
 563 35 479 -3 322 11 c 0
 165 25 80 194 80 194 c 1
 80 194 15 332 63 540 c 0
 111 748 289 819 404 819 c 0
 519 819 608 769 673 714 c 2
557 216 m 2
 593 239 634 347 631 434 c 0
 628 521 570 587 545 603 c 0
 520 619 460 658 377 647 c 0
 302 637 275 610 241 547 c 0
 207 484 206 388 208 367 c 0
 210 346 215 249 300 193 c 0
 385 137 521 193 557 216 c 2
EndSplineSet
Validated: 33
EndChar

StartChar: W
Encoding: 87 87 18
Width: 1077
Flags: W
VStem: 879 156<636.64 799.577>
LayerCount: 2
Fore
SplineSet
53 616 m 1
 53 616 43 685 53 705 c 0
 63 725 99 763 160 753 c 0
 221 743 230 663 231 649 c 0
 232 635 254 534 264 478 c 0
 274 422 329 286 338 287 c 0
 347 288 430 552 430 552 c 1
 430 552 461 694 538 703 c 0
 615 712 699 520 730 468 c 0
 754 427 788 378 802 357 c 0
 804 354 812 350 813 356 c 0
 814 362 840 545 852 608 c 0
 866 682 873 740 879 766 c 0
 885 792 905 813 929 818 c 0
 953 823 976 823 1000 809 c 0
 1024 795 1034 774 1035 743 c 0
 1036 712 1013 565 994 435 c 0
 975 305 929 164 919 148 c 0
 909 132 884 79 825 78 c 0
 766 77 701 154 678 185 c 0
 659 210 578 345 551 391 c 0
 548 397 539 398 537 389 c 0
 535 380 518 333 511 298 c 0
 504 263 447 116 427 88 c 0
 407 60 368 4 302 2 c 0
 236 0 170 165 170 165 c 1
 87 457 l 1
 53 616 l 1
EndSplineSet
Validated: 33
EndChar

StartChar: V
Encoding: 86 86 19
Width: 821
Flags: W
VStem: 596 157<674.656 781.43>
LayerCount: 2
Fore
SplineSet
246 676 m 0
 262 630 379 398 419 318 c 0
 424 308 439 309 443 320 c 0
 478 415 591 718 596 731 c 0
 602 747 623 838 705 816 c 0
 794 792 757 692 753 683 c 0
 749 674 639 329 629 289 c 0
 619 249 557 90 557 90 c 1
 557 90 523 -2 456 0 c 0
 389 2 372 50 356 72 c 0
 340 94 273 201 241 273 c 0
 206 352 69 644 65 656 c 0
 61 668 4 770 101 794 c 0
 199 820 227 731 246 676 c 0
EndSplineSet
Validated: 33
EndChar

StartChar: X
Encoding: 88 88 20
Width: 866
Flags: W
LayerCount: 2
Fore
SplineSet
419 588 m 2
 419 588 560 766 576 778 c 0
 592 790 636 809 685 781 c 0
 734 753 717 687 706 664 c 0
 697 647 590 514 538 451 c 0
 522 432 524 404 541 386 c 2
 541 386 641 283 689 236 c 0
 737 189 782 134 796 121 c 0
 810 108 826 52 801 14 c 0
 776 -24 740 -34 683 -13 c 0
 638 4 490 180 430 254 c 0
 417 270 392 270 379 253 c 2
 379 253 247 56 214 35 c 0
 181 14 139 8 117 18 c 0
 95 28 71 45 66 69 c 0
 61 93 63 121 75 152 c 0
 81 167 130 232 179 294 c 0
 214 338 249 381 268 404 c 0
 276 414 276 429 267 439 c 0
 217 494 63 663 58 670 c 0
 53 679 30 740 76 774 c 0
 122 808 167 787 181 778 c 0
 195 769 268 694 268 694 c 1
 366 587 l 2
 380 571 405 572 419 588 c 2
EndSplineSet
Validated: 33
EndChar

StartChar: P
Encoding: 80 80 21
Width: 741
Flags: W
HStem: 302 173<266.102 269 269.054 458.976>
VStem: 83 172<475.004 488 488.082 654.459> 88 178<43.1189 302.022>
LayerCount: 2
Fore
SplineSet
672 681 m 1xc0
 682 658 700 550 663 488 c 0
 622 418 541 336 459 319 c 0
 378 302 304 302 277 302 c 0
 268 302 266 294 266 289 c 0
 268 253 274 115 267 72 c 0
 259 22 230 -1 194 -1 c 0
 158 -1 143 4 115 37 c 0
 87 70 93 96 88 170 c 0xa0
 83 244 83 595 83 620 c 0
 83 645 59 653 51 678 c 0
 43 703 45 723 51 744 c 0
 57 765 72 789 103 794 c 0
 134 799 217 809 279 813 c 0
 341 817 403 826 502 803 c 0
 601 780 656 718 672 681 c 1xc0
393 476 m 0
 420 478 467 494 494 522 c 0
 512 540 529 586 515 613 c 0
 499 645 445 658 433 659 c 0
 410 661 307 663 288 658 c 0
 269 653 255 649 251 625 c 0
 247 601 255 488 255 488 c 2xc0
 255 480 261 475 269 475 c 2
 269 475 343 472 393 476 c 0
EndSplineSet
Validated: 33
EndChar

StartChar: Q
Encoding: 81 81 22
Width: 1024
Flags: W
LayerCount: 2
Fore
SplineSet
948 206 m 1
 968 192 994 145 961 88 c 0
 928 31 835 67 797 99 c 0
 785 108 769 118 751 128 c 0
 746 131 740 131 736 127 c 0
 734 125 731 122 729 120 c 0
 622 26 507 -1 442 -1 c 0
 377 -1 232 27 164 95 c 0
 125 134 96 194 78 236 c 0
 62 273 54 313 53 353 c 0
 55 525 113 684 231 758 c 0
 296 802 347 822 450 816 c 0
 544 810 621 785 694 737 c 0
 767 688 833 627 854 491 c 0
 864 425 855 351 830 280 c 0
 828 274 831 267 837 264 c 0
 873 249 910 233 948 206 c 1
300 194 m 2
 362 153 463 161 529 205 c 0
 542 214 559 232 541 237 c 0
 541 237 467 276 456 289 c 0
 445 302 434 357 457 388 c 0
 487 433 528 418 547 415 c 0
 559 413 609 388 659 361 c 0
 666 357 678 363 680 370 c 0
 689 397 693 420 695 453 c 0
 700 566 637 596 577 632 c 0
 518 668 422 664 398 659 c 0
 374 654 303 633 266 568 c 0
 229 503 220 466 215 387 c 0
 210 308 245 231 300 194 c 2
EndSplineSet
Validated: 33
EndChar

StartChar: R
Encoding: 82 82 23
Width: 966
Flags: W
VStem: 112 176<473.017 592.571>
LayerCount: 2
Fore
SplineSet
844 244 m 1
 845 244 l 1
 845 244 958 198 925 117 c 0
 892 36 804 69 804 69 c 1
 804 69 649 129 505 191 c 0
 399 236 326 257 324 257 c 0
 315 259 310 252 308 246 c 0
 306 241 313 94 311 73 c 0
 309 52 287 -6 245 -7 c 0
 203 -8 149 6 136 70 c 0
 123 134 112 553 112 559 c 0
 112 565 113 584 103 593 c 0
 93 602 72 621 67 634 c 0
 59 656 59 686 67 708 c 0
 75 730 109 763 167 780 c 0
 225 797 379 850 509 800 c 0
 639 750 652 679 652 679 c 1
 652 679 688 572 622 483 c 0
 556 394 525 383 525 383 c 1
 844 244 l 1
444 565 m 1
 444 564 l 1
 455 600 433 636 417 645 c 0
 401 654 356 656 335 652 c 0
 314 648 292 636 288 615 c 0
 285 600 288 494 288 485 c 0
 288 476 299 472 303 471 c 0
 307 470 354 473 372 480 c 0
 390 487 433 529 444 565 c 1
EndSplineSet
Validated: 33
EndChar

StartChar: T
Encoding: 84 84 24
Width: 923
Flags: HW
HStem: 600 186<84.8495 356.866> 647 171<659.272 823.431>
LayerCount: 2
Fore
SplineSet
388 581 m 1x40
 387 597 373 609 357 609 c 2
 357 609 173 601 123 600 c 0
 73 599 40 639 42 699 c 0
 44 759 112 781 152 786 c 0x80
 192 791 403 799 464 803 c 0
 525 807 778 819 782 818 c 0
 799 815 861 818 867 742 c 0
 873 671 780 650 767 647 c 0
 766 647 766 647 765 647 c 2
 588 635 l 2
 576 634 566 624 567 612 c 0
 572 558 585 422 588 382 c 0
 592 332 620 106 620 106 c 1
 620 106 631 11 535 0 c 0
 439 -11 425 67 422 94 c 0
 422 95 422 95 422 96 c 0
 418 296 388 581 388 581 c 1x40
EndSplineSet
EndChar

StartChar: Z
Encoding: 90 90 25
Width: 948
Flags: W
HStem: 36 187<432.131 845.75> 613 178<76.5085 438.79>
LayerCount: 2
Fore
SplineSet
139 791 m 0
 161 792 566 803 635 810 c 0
 668 813 701 809 724 794 c 0
 747 779 756 753 757 732 c 0
 758 690 724 650 724 650 c 1
 724 650 454 335 423 304 c 0
 393 273 353 226 353 226 c 2
 350 222 350 214 355 214 c 2
 355 214 751 225 786 223 c 0
 821 221 886 196 878 133 c 0
 869 59 824 37 809 36 c 0
 794 35 178 25 145 30 c 0
 83 39 55 91 54 118 c 0
 53 145 60 186 81 209 c 0
 92 221 186 329 282 429 c 0
 354 504 418 574 444 601 c 0
 448 605 445 612 439 612 c 2
 439 612 149 608 116 613 c 0
 83 618 71 638 59 669 c 0
 47 700 56 741 60 749 c 0
 77 785 117 790 139 791 c 0
EndSplineSet
Validated: 33
EndChar

